<?xml version="1.0" standalone="no"?><!DOCTYPE svg PUBLIC "-//W3C//DTD SVG 1.1//EN" "http://www.w3.org/Graphics/SVG/1.1/DTD/svg11.dtd"><svg t="1688562092866" class="icon" viewBox="0 0 1024 1024" version="1.1" xmlns="http://www.w3.org/2000/svg" p-id="893" xmlns:xlink="http://www.w3.org/1999/xlink" width="200" height="200"><path d="M959.2 510.9v356.2c-2.9 85.9-74.7 153.3-160.6 150.7h-566C146.8 1020.4 74.9 953 72 867.1V510.9c2.8-84.6 72.5-151.5 157.1-150.7v-81.4C236 125.5 362.2 4.7 515.6 4.7s279.6 120.8 286.4 274v81.5c84.6-0.8 154.3 66.1 157.2 150.7zM732.1 278.8c-3.6-117-99.5-210-216.5-210-117.1 0-212.9 93-216.5 210v80h433.2l-0.2-80zM232.7 424c-49.1-1-89.7 37.8-90.9 86.8V867c1.2 49.1 41.8 87.9 90.9 86.8h565.5c49 1 89.6-37.8 90.8-86.8V510.8c-1.2-49.1-41.8-87.9-90.9-86.8h-66.4l-433.2-1.4-66.3 1.4h0.5z m278 142.2c35.1-0.9 64.4 26.7 65.5 61.9-0.3 22.5-12.8 43-32.7 53.6v100.8c-0.8 17.5-15.3 31.3-32.8 31.3-17.6 0-32-13.7-32.8-31.3V681.6c-19.9-10.5-32.4-31-32.7-53.5 1.1-35 30.3-62.7 65.3-61.7l0.2-0.2z m0 0" p-id="894"></path></svg>